<svg xmlns="http://www.w3.org/2000/svg" width="32" height="32" viewBox="0 0 32 32">
  <rect width="32" height="32" rx="16" fill="#C4855A"/>
  <path d="M16 10.5c1.8 0 2 .007 2.71.039 1.68.077 2.47.878 2.544 2.544C21.286 13.793 21.293 14 21.293 15.8s-.007 2.007-.039 2.71c-.077 1.663-.86 2.467-2.544 2.544-.71.032-.91.039-2.71.039s-2-.007-2.71-.039c-1.687-.077-2.467-.884-2.544-2.544C10.714 17.8 10.707 17.6 10.707 15.8s.007-2 .039-2.71c.077-1.668.86-2.467 2.544-2.544C13.993 10.507 14.2 10.5 16 10.5zm0-1.2c-1.83 0-2.06.008-2.78.04-2.232.102-3.472 1.34-3.574 3.574C9.614 13.634 9.607 13.863 9.607 15.693s.007 2.059.039 2.78c.102 2.231 1.34 3.472 3.574 3.574.72.032.95.04 2.78.04s2.06-.008 2.78-.04c2.228-.102 3.473-1.34 3.574-3.574.032-.721.04-.95.04-2.78s-.008-2.059-.04-2.78C22.253 10.681 21.009 9.442 18.78 9.34 18.06 9.308 17.83 9.3 16 9.3zm0 3.24a3.153 3.153 0 1 0 0 6.306 3.153 3.153 0 0 0 0-6.306zm0 5.2a2.047 2.047 0 1 1 0-4.094 2.047 2.047 0 0 1 0 4.094zm4.01-6.01a.737.737 0 1 0 0 1.474.737.737 0 0 0 0-1.474z" fill="#fff"/>
</svg>
