<svg xmlns="http://www.w3.org/2000/svg" width="32" height="32" viewBox="0 0 32 32">
  <rect width="32" height="32" rx="16" fill="#C4855A"/>
  <path d="M21.2 12.08a4.18 4.18 0 0 1-2.53-1.53A4.18 4.18 0 0 1 18 8.5h-2.4v10.37a1.93 1.93 0 0 1-1.93 1.75 1.93 1.93 0 0 1-1.93-1.93 1.93 1.93 0 0 1 1.93-1.93c.19 0 .37.03.54.08v-2.45a4.34 4.34 0 0 0-.54-.03 4.33 4.33 0 0 0-4.33 4.33 4.33 4.33 0 0 0 4.33 4.33 4.33 4.33 0 0 0 4.33-4.33V13.1a6.56 6.56 0 0 0 3.76 1.17v-2.38a4.2 4.2 0 0 1-.56-.01z" fill="#fff"/>
</svg>
